<svg xmlns="http://www.w3.org/2000/svg" width="27" height="26" viewBox="0 0 27 26">
    <path fill="#252B32" fill-rule="nonzero" stroke="#252B32" stroke-width=".4" d="M18.731 5.808v14.57c0 1.54.556 2.382 1.613 2.925l.011.006c.362.185.752.306 1.141.376.234.042.414.057.51.058a3.02 3.02 0 0 0 1.376-.402c.892-.52 1.378-1.374 1.378-2.93V7.03a2.407 2.407 0 0 0-.19-.574c-.225-.45-.482-.632-1.088-.632-.608 0-.866.179-1.087.616-.129.257-.19.56-.19.686v12.805a.718.718 0 1 1-1.439.002V7.123a3.35 3.35 0 0 1 .333-1.316h-2.368zm6.429 1.551v-.2h-.2v.2h.2zm-6.396-1.951h-.2l.2.2v-.2zm0-.657v-.2l-.2.2h.2zm4.518 0h.2v-.2h-.2v.2zM25.8 20.5v.028c.013-.072.013-.072.011-.068l-.011.04zm-3.793 4.3zm-.72 0v.2h.2v-.2h-.2zM1.44 1.202a.318.318 0 0 1 .011-.003l-.024.004a.36.36 0 0 1 .013-.001zm.4.658h15.853v18.52c0 1.503.556 2.642 1.5 3.41l.437.354H5.497c-.129.001-.331-.012-.584-.052a4.538 4.538 0 0 1-.578-.138 4.107 4.107 0 0 1-.682-.26 3.665 3.665 0 0 1-.342-.192c-.952-.608-1.472-1.58-1.472-3.122V1.859zm2.293 3.685a.333.333 0 0 0-.264.374c.025.183.19.31.394.282h10.245a.32.32 0 0 0 .28-.16.34.34 0 0 0 .001-.334.322.322 0 0 0-.283-.162H4.133zm0 2.112a.333.333 0 0 0-.264.375c.025.182.19.309.394.281h10.245a.32.32 0 0 0 .28-.16.34.34 0 0 0 .001-.334.322.322 0 0 0-.283-.162H4.133zm.244 4.225a.333.333 0 0 0-.265.375c.026.182.19.309.395.281H8.03a.32.32 0 0 0 .28-.16.34.34 0 0 0 .001-.334.322.322 0 0 0-.283-.162H4.377zm5.99 0a.333.333 0 0 0-.265.375c.025.182.19.309.394.281h4.012a.32.32 0 0 0 .28-.16.34.34 0 0 0 .001-.334.322.322 0 0 0-.283-.162H10.366zm-5.99 2.113a.333.333 0 0 0-.265.374c.026.183.19.31.395.282H8.03a.32.32 0 0 0 .28-.16.34.34 0 0 0 .001-.334.322.322 0 0 0-.283-.162H4.377zm5.99 0a.333.333 0 0 0-.265.374c.025.183.19.31.394.282h4.012a.32.32 0 0 0 .28-.16.34.34 0 0 0 .001-.334.322.322 0 0 0-.283-.162H10.366zm0 1.997a.333.333 0 0 0-.265.374c.025.183.19.31.394.282h4.012a.32.32 0 0 0 .28-.16.34.34 0 0 0 .001-.334.322.322 0 0 0-.283-.162l-4.035-.002a.322.322 0 0 0-.072.002h-.033zm-5.99.115a.333.333 0 0 0-.265.375c.026.182.19.309.395.281H8.03a.32.32 0 0 0 .28-.16.34.34 0 0 0 .001-.334.322.322 0 0 0-.283-.162H4.377zm5.99 1.997a.333.333 0 0 0-.265.375c.025.182.19.309.394.281h4.012a.32.32 0 0 0 .28-.16.34.34 0 0 0 .001-.334.322.322 0 0 0-.283-.162l-4.035-.002a.322.322 0 0 0-.072.002h-.033zm-5.99.116a.333.333 0 0 0-.265.374c.026.183.19.31.395.282H8.03a.32.32 0 0 0 .28-.16.34.34 0 0 0 .001-.334.322.322 0 0 0-.283-.162H4.377zm5.99 1.864a.333.333 0 0 0-.265.375c.025.182.19.31.394.282h4.012a.32.32 0 0 0 .28-.16.34.34 0 0 0 .001-.334.322.322 0 0 0-.283-.163H10.366zm-5.99.248a.333.333 0 0 0-.265.375c.026.182.19.309.395.281H8.03a.32.32 0 0 0 .28-.16.34.34 0 0 0 .001-.334.322.322 0 0 0-.283-.162H4.377z"/>
</svg>
