<svg xmlns="http://www.w3.org/2000/svg" width="156" height="130" viewBox="0 0 156 130">
    <g fill="none" fill-rule="evenodd">
        <path fill="#004A97" d="M0 130h156V0H0z"/>
        <path fill="#FFF" d="M59.8 34.32h36.4V0H59.8z"/>
        <path fill="#E83F55" d="M59.8 37.44h36.4v-3.12H59.8z"/>
        <path fill="#FFF" d="M20.28 75.048v19.554h5.758v-6.627c0-1.575-.217-4.209-.408-5.92h.055l3.558 12.547h4.454l3.558-12.547h.054c-.244 2.254-.407 4.372-.407 6.573v5.974h5.757V75.048h-7.74l-3.45 12.194-3.449-12.194h-7.74zm31.722 12.9l1.982-7.007 2.065 7.007h-4.047zm-1.222-12.9l-7.007 19.554h6.273l.734-2.58h6.382l.76 2.58h6.383l-7.007-19.554H50.78zm20.777 0h-6.138v19.554h27.05V75.048h-6.138V90.04h-4.318V75.048h-6.138V90.04h-4.318V75.048zm36.502 0l-7.062 11.217.326-4.998v-6.22h-6.138v19.555h6.002l7.061-11.217-.325 4.998v6.22h6.138V75.047h-6.002zm15.127 0h-6.41v19.554h6.41v-8.175h6.057v8.175h6.41V75.048h-6.41v6.817h-6.057v-6.817zM33.685 52.237h5.05c3.091 0 4.255 1.05 4.255 2.855 0 2.397-1.617 3.151-4.284 3.151h-5.02v-6.006zm-2.78 17.292h8.85c4.568 0 7.008-2.64 7.008-5.79 0-3.34-2.383-4.23-3.745-4.742 2.27-1.023 2.752-2.8 2.752-4.094 0-2.666-1.958-4.929-5.816-4.929h-9.049V69.53zm2.78-9.13h5.475c2.27 0 4.822.538 4.822 3.285 0 2.182-1.474 3.582-4.368 3.582h-5.929v-6.868zm18.666-8.162h5.645c2.298 0 4.084.808 4.084 3.26 0 2.639-1.702 3.527-4.198 3.527h-5.531v-6.787zm0 9.05h6.495c4.454 0 6.1-3.098 6.1-5.818 0-3.152-2.298-5.495-6.1-5.495h-9.275V69.53h2.78v-8.242zm30.607 5.899H70.534v-6.788h11.262v-2.343H70.534v-5.738H82.76v-2.343H67.754V69.53h15.204v-2.343zm2.979-17.212V69.53h2.695V57.974c0-.566-.085-3.098-.085-4.875h.085l5.787 16.43h2.751l5.816-16.43h.028c0 1.804-.085 4.31-.085 4.875v11.555h2.695V49.974h-3.943l-5.872 16.538h-.057l-5.843-16.538h-3.972zm39.09 0h-9.163c-3.404 0-6.78 1.24-6.78 5.36 0 4.23 3.32 5.441 5.419 5.818l-5.844 8.377h3.489l5.503-8.377h4.596v8.377h2.78V49.974zm-2.78 8.916h-5.844c-2.042 0-4.454-.647-4.454-3.394 0-3.017 2.327-3.26 3.717-3.26h6.581v6.654z"/>
        <path fill="#004A97" d="M75.58 24.315l-.262-.057c-.016-.003-.037.007-.04.02l-.532 1.398-.521-1.399c-.004-.012-.025-.022-.041-.019l-.266.057c-.018.003-.03.018-.025.034l.603 1.49c.01.03.04.042.075.042h.075c-.115.32-.178.374-.434.374-.019 0-.032.016-.025.032l.031.207c.003.02.02.029.04.025.298 0 .516-.11.645-.433l.7-1.737c.006-.016-.004-.031-.022-.034zM62.4 16.232v5.02h4.433c.369 0 .554-.186.554-.558v-4.09h3.51c.368 0 .552-.186.553-.556V14.56h-7.388c-1.144 0-1.662.662-1.662 1.672zm1.315 8.054h-1.14c-.025 0-.044.016-.044.035v1.526c0 .021.019.034.044.034h.222c.025 0 .043-.013.043-.034V24.54h.875c.025 0 .044-.012.044-.034v-.186c0-.019-.019-.035-.044-.035zm5.22-.044c-.21 0-.49.098-.597.215v-.142c0-.016-.015-.029-.035-.029h-.243c-.019 0-.034.013-.034.029v2.141c0 .016.015.029.034.029h.243c.02 0 .035-.013.035-.029v-.748c.107.12.388.217.594.217.525 0 .73-.195.73-.843 0-.648-.205-.84-.727-.84zm-.094 1.413c-.156 0-.365-.032-.503-.095v-.952c.138-.064.347-.095.503-.095.416 0 .478.05.478.57 0 .524-.062.572-.478.572zm12.571-1.369h-1.46c-.018 0-.03.013-.03.029v1.538c0 .015.012.028.03.028h.245c.018 0 .034-.013.034-.028v-1.318h.903v1.318c0 .015.015.028.034.028h.244c.019 0 .031-.013.031-.028v-1.538c0-.016-.012-.029-.031-.029zm11.076-6.325v-.11c.593-.182 1.112-.62 1.112-1.613v-.013c0-.955-.33-1.665-1.755-1.665H84.55v1.489c.001.366.182.55.542.555h3.217a.306.306 0 0 1 0 .613h-2.281v1.378h2.285a.306.306 0 1 1-.004.612H84.55v1.487c0 .372.185.557.555.557h6.902c1.374 0 1.592-.926 1.592-1.664l.001-.013c0-.968-.504-1.45-1.112-1.613zm.94 7.68V24.9c0-.519-.263-.658-.804-.658-.215 0-.424.02-.6.057-.018.007-.027.022-.018.041l.034.201c.003.016.028.023.038.019.144-.04.372-.063.527-.063.398 0 .51.07.51.406v.176c-.084-.094-.35-.207-.559-.207-.532 0-.7.15-.7.525 0 .374.168.528.7.528.21 0 .478-.123.562-.217l.091.198c.006.012.028.022.044.016l.231-.079c.016-.006.025-.022.016-.038l-.073-.163zm-.313-.072a1.34 1.34 0 0 1-.5.092c-.36 0-.425-.05-.425-.27 0-.22.066-.274.425-.274.156 0 .36.031.5.094v.358zm-5.7-1.283h-1.459c-.018 0-.032.013-.032.029v1.538c0 .015.014.028.032.028h.244c.018 0 .035-.013.035-.028v-1.318h.901v1.318c0 .015.017.028.036.028h.243c.019 0 .031-.013.031-.028v-1.538c0-.016-.012-.029-.031-.029zm-8.296-9.726h-5.052l-2.031 6.691h2.084l.307-1.115h2.95l.172.634c.119.357.31.481.656.481h4.79l-1.527-5.019c-.35-1.148-.688-1.672-2.35-1.672zm-4.284 4.089l.562-2.045h.613c.279 0 .433.113.519.426l.441 1.619h-2.135z"/>
        <path fill="#FFF" fill-rule="nonzero" d="M16.035 115.44h-4.119v-5.824h3.994v.557h-3.378v1.864h2.77v.558h-2.77v2.288h3.503v.557zm1.14 1.19H16.6v-1.714h.508c.444-.588.671-1.564.682-2.929l.009-.566h2.986v3.495h.75v1.714h-.583v-1.19h-3.777v1.19zm.599-1.714h2.412v-2.97h-1.83v.24c0 1.199-.194 2.109-.582 2.73zm5.3.524h-.558v-4.019h.599v3.137l2.57-3.137h.558v4.019h-.599v-3.128l-2.57 3.128zm5.183 0h-.6v-4.019h.6v1.69h2.47v-1.69h.6v4.019h-.6v-1.789h-2.47v1.789zm4.8-3.494c.405-.416.927-.624 1.565-.624.637 0 1.159.208 1.564.624.405.405.607.9.607 1.489 0 .588-.202 1.084-.607 1.49-.41.41-.932.615-1.564.615-.633 0-1.154-.205-1.565-.616a2.025 2.025 0 0 1-.607-1.49c0-.587.203-1.083.607-1.488zm3.12 1.489c0-.444-.147-.818-.44-1.123-.294-.3-.666-.45-1.115-.45-.45 0-.821.15-1.115.45-.294.305-.441.68-.441 1.123 0 .438.147.81.44 1.115.295.3.666.449 1.116.449.449 0 .82-.15 1.114-.45.294-.304.441-.676.441-1.114zm3.653 2.105c-.627 0-1.154-.197-1.58-.59-.422-.39-.633-.894-.633-1.515 0-.6.188-1.101.566-1.506.382-.405.873-.607 1.472-.607.322 0 .608.065.857.195.25.13.447.301.59.512a2.45 2.45 0 0 1 .434 1.38v.167h-3.304c.034.433.207.778.52 1.036.314.258.712.387 1.194.387.466 0 .896-.125 1.29-.374v.532c-.327.255-.796.383-1.406.383zm-1.59-2.455h2.688a1.367 1.367 0 0 0-.35-.84c-.205-.255-.52-.383-.948-.383-.4 0-.726.122-.982.366-.25.25-.385.536-.407.857zm6.615-1.664h.6v1.656l1.913-1.656h.815l-2.121 1.814 2.42 2.205h-.856l-2.172-1.98v1.98h-.599v-4.019zm4.817.525c.405-.416.927-.624 1.565-.624.638 0 1.159.208 1.564.624.405.405.607.9.607 1.489 0 .588-.202 1.084-.607 1.49-.41.41-.932.615-1.564.615-.633 0-1.154-.205-1.565-.616a2.025 2.025 0 0 1-.607-1.49c0-.587.203-1.083.607-1.488zm3.12 1.489c0-.444-.147-.818-.44-1.123-.294-.3-.666-.45-1.115-.45-.45 0-.821.15-1.115.45-.294.305-.441.68-.441 1.123 0 .438.147.81.44 1.115.295.3.666.449 1.116.449.449 0 .82-.15 1.115-.45.293-.304.44-.676.44-1.114zm2.33 1.364v2.305h-.599v-5.683h.6v.641c.376-.494.895-.74 1.555-.74.593 0 1.079.205 1.456.615.377.41.566.907.566 1.49 0 .588-.189 1.087-.566 1.497-.377.41-.863.616-1.456.616-.66 0-1.179-.247-1.556-.74zm0-2.03v1.323c.117.266.305.484.566.653.26.17.543.254.848.254.45 0 .819-.15 1.107-.45.294-.31.441-.684.441-1.122 0-.439-.147-.81-.441-1.115-.288-.3-.657-.45-1.107-.45-.299 0-.58.085-.84.254a1.53 1.53 0 0 0-.574.653zm5.292 2.671h-.6v-4.019h3.611v4.019h-.599v-3.494h-2.412v3.494zm4.742-3.494c.405-.416.926-.624 1.564-.624s1.16.208 1.564.624c.405.405.608.9.608 1.489 0 .588-.203 1.084-.608 1.49-.41.41-.932.615-1.564.615s-1.154-.205-1.564-.616a2.025 2.025 0 0 1-.607-1.49c0-.587.202-1.083.607-1.488zm3.12 1.489c0-.444-.147-.818-.441-1.123-.294-.3-.666-.45-1.115-.45-.45 0-.82.15-1.115.45-.294.305-.44.68-.44 1.123 0 .438.146.81.44 1.115.294.3.666.449 1.115.449.45 0 .821-.15 1.115-.45.294-.304.441-.676.441-1.114zm2.33 1.364v2.305h-.6v-5.683h.6v.641c.377-.494.895-.74 1.555-.74.594 0 1.08.205 1.456.615.378.41.566.907.566 1.49 0 .588-.188 1.087-.566 1.497-.377.41-.862.616-1.456.616-.66 0-1.178-.247-1.555-.74zm0-2.03v1.323c.116.266.305.484.565.653.261.17.544.254.849.254.45 0 .818-.15 1.107-.45.294-.31.44-.684.44-1.122 0-.439-.146-.81-.44-1.115-.289-.3-.658-.45-1.107-.45-.3 0-.58.085-.84.254a1.53 1.53 0 0 0-.574.653zm6.048 2.23c.278 0 .541-.064.79-.191a1.83 1.83 0 0 0 .608-.483v-.557a2.36 2.36 0 0 0-1.306-.4c-.366 0-.656.072-.87.217a.677.677 0 0 0-.32.59.7.7 0 0 0 .308.608c.205.144.469.216.79.216zm-.166.54c-.427 0-.79-.116-1.09-.349-.294-.244-.441-.57-.441-.981 0-.405.155-.73.466-.974.31-.238.704-.358 1.181-.358.522 0 1.004.13 1.448.391v-.399c0-.671-.441-1.007-1.323-1.007-.471 0-.91.136-1.314.408v-.582c.393-.244.873-.366 1.439-.366.549 0 .986.129 1.31.386.325.258.487.626.487 1.103v1.656a.58.58 0 0 0 .104.366c.07.088.162.133.279.133a.515.515 0 0 0 .233-.05v.466c-.089.06-.222.091-.4.091a.783.783 0 0 1-.503-.162c-.136-.108-.22-.268-.254-.478-.405.471-.945.707-1.622.707zm5.316-.099h-.599v-3.494H79.75v-.525h3.511v.525h-1.456v3.494zm2.937 0h-.557v-4.019h.599v3.137l2.57-3.137h.558v4.019h-.599v-3.128l-2.57 3.128zm6.84 0h-2.255v-4.019h2.113c.383 0 .68.093.894.28.214.185.32.433.32.744 0 .432-.166.726-.499.882.51.15.766.493.766 1.031 0 .339-.117.604-.35.795-.233.191-.563.287-.99.287zm-1.656-1.814v1.29h1.53c.272 0 .483-.056.633-.167a.555.555 0 0 0 .224-.474.566.566 0 0 0-.224-.478c-.15-.114-.36-.17-.632-.17h-1.531zm0-1.68v1.181h1.347c.25 0 .444-.051.583-.154a.511.511 0 0 0 .208-.437c0-.393-.264-.59-.79-.59h-1.348zm4.8 3.494h-.599v-4.019h.6v1.69h2.47v-1.69h.6v4.019h-.6v-1.789h-2.47v1.789zm4.8-3.494c.406-.416.927-.624 1.565-.624.638 0 1.16.208 1.564.624.405.405.608.9.608 1.489 0 .588-.203 1.084-.608 1.49-.41.41-.932.615-1.564.615s-1.154-.205-1.564-.616a2.025 2.025 0 0 1-.607-1.49c0-.587.202-1.083.607-1.488zm3.12 1.489c0-.444-.146-.818-.44-1.123-.294-.3-.666-.45-1.115-.45-.45 0-.82.15-1.115.45-.294.305-.44.68-.44 1.123 0 .438.146.81.44 1.115.294.3.666.449 1.115.449.45 0 .821-.15 1.115-.45.294-.304.44-.676.44-1.114zm3.653 2.105c-.626 0-1.153-.197-1.58-.59-.422-.39-.633-.894-.633-1.515 0-.6.189-1.101.566-1.506.383-.405.874-.607 1.473-.607.321 0 .607.065.857.195s.446.301.59.512a2.45 2.45 0 0 1 .433 1.38v.167h-3.303c.033.433.207.778.52 1.036.313.258.711.387 1.194.387.466 0 .896-.125 1.29-.374v.532c-.328.255-.796.383-1.407.383zm-1.589-2.455h2.688a1.367 1.367 0 0 0-.35-.84c-.205-.255-.521-.383-.948-.383-.4 0-.727.122-.982.366-.25.25-.386.536-.408.857zm7.172 2.355h-.557v-4.019h.599v3.137l2.57-3.137h.558v4.019h-.599v-3.128l-2.57 3.128zm5.866.1c-.583 0-1.076-.092-1.481-.275v-.582c.449.21.918.316 1.406.316.41 0 .733-.065.97-.195.235-.13.353-.312.353-.545a.545.545 0 0 0-.291-.491c-.195-.117-.46-.175-.8-.175h-.698v-.524h.699c.31 0 .545-.053.703-.158a.487.487 0 0 0 .237-.425c0-.416-.377-.624-1.132-.624-.449 0-.89.092-1.322.275v-.557c.382-.172.862-.258 1.439-.258.46 0 .846.097 1.156.29.311.195.466.45.466.766-.016.26-.08.456-.191.587-.111.13-.264.237-.458.32.544.178.816.516.816 1.015 0 .372-.17.671-.512.899-.341.227-.795.34-1.36.34zm3.128 1.09h-.574v-1.714h.507c.444-.588.672-1.564.683-2.929l.008-.566h2.987v3.495h.749v1.714h-.583v-1.19h-3.777v1.19zm.6-1.714h2.412v-2.97h-1.83v.24c0 1.199-.195 2.109-.583 2.73zm6.098.083c.277 0 .54-.064.79-.191a1.83 1.83 0 0 0 .607-.483v-.557a2.36 2.36 0 0 0-1.306-.4c-.366 0-.656.072-.87.217a.677.677 0 0 0-.32.59.7.7 0 0 0 .308.608c.205.144.469.216.79.216zm-.167.54c-.427 0-.79-.116-1.09-.349-.294-.244-.44-.57-.44-.981 0-.405.155-.73.465-.974.31-.238.705-.358 1.182-.358.521 0 1.004.13 1.447.391v-.399c0-.671-.44-1.007-1.322-1.007-.472 0-.91.136-1.315.408v-.582c.394-.244.874-.366 1.44-.366.548 0 .985.129 1.31.386.324.258.486.626.486 1.103v1.656a.58.58 0 0 0 .104.366c.07.088.163.133.28.133a.515.515 0 0 0 .232-.05v.466c-.089.06-.222.091-.4.091a.783.783 0 0 1-.503-.162c-.135-.108-.22-.268-.253-.478-.405.471-.946.707-1.623.707zm4.352-.099h-.6v-4.019h.6v1.69h2.47v-1.69h.6v4.019h-.6v-1.789h-2.47v1.789zm5.042 0h-.558v-4.019h.6v3.137l2.57-3.137h.557v4.019h-.599v-3.128l-2.57 3.128zm6.506.1c-.627 0-1.154-.197-1.581-.59-.422-.39-.632-.894-.632-1.515 0-.6.188-1.101.565-1.506.383-.405.874-.607 1.473-.607.322 0 .607.065.857.195s.447.301.59.512a2.45 2.45 0 0 1 .433 1.38v.167h-3.303c.034.433.207.778.52 1.036.314.258.712.387 1.194.387.466 0 .896-.125 1.29-.374v.532c-.327.255-.796.383-1.406.383zm-1.59-2.455h2.688a1.367 1.367 0 0 0-.35-.84c-.205-.255-.52-.383-.948-.383-.4 0-.727.122-.982.366-.25.25-.385.536-.407.857z"/>
    </g>
</svg>
