<svg xmlns="http://www.w3.org/2000/svg" width="104" height="100" viewBox="0 0 104 100">
    <path fill="#004A97" fill-rule="nonzero" d="M0 0v34.783h8.667v12.5l6.77-4.484 11.917-8.016h15.98v13.043h32.77l4.469 4.484C71.873 53.21 65 60.598 65 69.565c0 4.84 2.065 9.205 5.281 12.364-5.772 3.924-9.614 10.615-9.614 18.071h8.666c0-7.201 5.823-13.043 13-13.043s13 5.842 13 13.043H104c0-7.456-3.842-14.147-9.615-18.07 3.217-3.16 5.282-7.524 5.282-12.365 0-4.33-1.693-8.22-4.334-11.277V47.826H104V8.696H65V0H0zm8.667 8.696h47.666v17.391H24.646l-1.084.68-6.229 4.211v-4.891H8.667V8.696zM65 17.39h30.333v21.74h-8.666v6.793l-5.552-5.57-1.355-1.224H52v-4.347h13V17.39zM21.667 52.174c-9.53 0-17.334 7.83-17.334 17.391 0 4.84 2.065 9.205 5.282 12.364C3.842 85.853 0 92.544 0 100h8.667c0-7.201 5.823-13.043 13-13.043s13 5.842 13 13.043h8.666c0-7.456-3.842-14.147-9.614-18.07C36.935 78.77 39 74.405 39 69.564c0-9.562-7.803-17.391-17.333-17.391zm0 8.696c4.84 0 8.666 3.838 8.666 8.695 0 4.858-3.825 8.696-8.666 8.696S13 74.423 13 69.565c0-4.857 3.826-8.695 8.667-8.695zm60.666 0c4.841 0 8.667 3.838 8.667 8.695 0 4.858-3.826 8.696-8.667 8.696-4.84 0-8.666-3.838-8.666-8.696 0-4.857 3.825-8.695 8.666-8.695z" opacity=".1"/>
</svg>
