<svg xmlns="http://www.w3.org/2000/svg" width="120" height="120" viewBox="0 0 120 120">
    <g fill="none" fill-rule="evenodd">
        <circle cx="60" cy="60" r="60" fill="#000" opacity=".25"/>
        <path fill="#FFF" fill-rule="nonzero" d="M65.559 35c-10.715 0-19.441 8.726-19.441 19.441a19.29 19.29 0 0 0 4.374 12.272L35 82.205 37.795 85l15.492-15.492a19.29 19.29 0 0 0 12.272 4.374C76.274 73.882 85 65.156 85 54.442 85 43.725 76.274 35 65.559 35zm0 3.888a15.525 15.525 0 0 1 15.553 15.553 15.525 15.525 0 0 1-15.553 15.553A15.525 15.525 0 0 1 50.006 54.44 15.525 15.525 0 0 1 65.56 38.888zm-1.944 7.777v5.832h-5.832v3.888h5.832v5.832h3.888v-5.832h5.832v-3.888h-5.832v-5.832h-3.888z"/>
    </g>
</svg>
